<svg width="40" height="40" viewBox="0 0 40 40" fill="none" xmlns="http://www.w3.org/2000/svg">
<path d="M6.85875 35.8333V17.6915H4.16602V9.00603H12.7851C12.5496 8.73512 12.3905 8.42967 12.306 8.08967C12.2215 7.74967 12.1797 7.39239 12.1797 7.01876C12.1797 5.77239 12.6151 4.71331 13.4878 3.84059C14.3606 2.96786 15.4197 2.53149 16.666 2.53149C17.3051 2.53149 17.8969 2.66603 18.4424 2.93422C18.9869 3.2024 19.4742 3.56058 19.9033 4.00967C20.3333 3.5433 20.8197 3.18059 21.3651 2.92149C21.9097 2.66149 22.5014 2.53149 23.1405 2.53149C24.3869 2.53149 25.4469 2.96786 26.3196 3.84059C27.1915 4.71331 27.6278 5.77239 27.6278 7.01876C27.6278 7.38876 27.5815 7.73967 27.4887 8.07331C27.3951 8.40694 27.2396 8.71785 27.0224 9.00603H35.8333V17.6915H33.1405V35.8333H6.85875ZM23.1405 5.03149C22.5778 5.03149 22.1051 5.2224 21.7242 5.60331C21.3442 5.98422 21.1533 6.45603 21.1533 7.01876C21.1533 7.58148 21.3442 8.05422 21.7242 8.43513C22.1051 8.81604 22.5778 9.00603 23.1405 9.00603C23.7033 9.00603 24.176 8.81604 24.5569 8.43513C24.9378 8.05422 25.1278 7.58148 25.1278 7.01876C25.1278 6.45603 24.9378 5.98422 24.5569 5.60331C24.176 5.2224 23.7033 5.03149 23.1405 5.03149ZM14.6797 7.01876C14.6797 7.58148 14.8696 8.05422 15.2506 8.43513C15.6315 8.81604 16.1033 9.00603 16.666 9.00603C17.2297 9.00603 17.7015 8.81604 18.0824 8.43513C18.4633 8.05422 18.6533 7.58148 18.6533 7.01876C18.6533 6.45603 18.4633 5.98422 18.0824 5.60331C17.7015 5.2224 17.2297 5.03149 16.666 5.03149C16.1033 5.03149 15.6315 5.2224 15.2506 5.60331C14.8696 5.98422 14.6797 6.45603 14.6797 7.01876ZM6.66602 11.506V15.1924H18.7496V11.506H6.66602ZM18.7496 33.3333V17.6915H9.35875V33.3333H18.7496ZM21.2496 33.3333H30.6405V17.6915H21.2496V33.3333ZM33.3333 15.1924V11.506H21.2496V15.1924H33.3333Z" stroke="#E6165F" stroke-width="1.04722"/>
</svg>
