<svg width="35" height="36" viewBox="0 0 35 36" fill="none" xmlns="http://www.w3.org/2000/svg">
<path d="M34.417 0.16333H17.5H0.583008C0.261008 0.16333 0 0.424323 0 0.746323V34.5803C0 34.9023 0.261008 35.1633 0.583008 35.1633H17.5C17.823 35.1633 18.083 34.9023 18.083 34.5803V27.5803H32.083C33.719 27.5803 35 25.7863 35 23.4963V0.746323C35 0.424323 34.739 0.16333 34.417 0.16333ZM29.226 24.3333C29.226 24.3363 29.227 24.3383 29.227 24.3403C29.266 24.6083 29.322 24.8643 29.395 25.1073C29.396 25.1123 29.398 25.1163 29.399 25.1203C29.472 25.3613 29.56 25.5903 29.664 25.8043C29.666 25.8103 29.669 25.8143 29.672 25.8203C29.775 26.0313 29.891 26.2273 30.02 26.4073C30.02 26.4073 30.022 26.4113 30.024 26.4133H17.5H15.167C14.218 26.4133 13.417 25.0773 13.417 23.4963C13.417 21.9163 14.218 20.5803 15.167 20.5803H17.5H30.024C30.022 20.5813 30.021 20.5843 30.019 20.5863C29.891 20.7653 29.774 20.9623 29.672 21.1733C29.669 21.1783 29.666 21.1833 29.664 21.1883C29.56 21.4023 29.472 21.6313 29.399 21.8733C29.398 21.8773 29.396 21.8803 29.395 21.8853C29.322 22.1283 29.266 22.3853 29.227 22.6523C29.227 22.6553 29.226 22.6573 29.225 22.6593C29.187 22.9293 29.167 23.2093 29.167 23.4963C29.167 23.7843 29.187 24.0643 29.226 24.3333ZM32.083 26.4133C31.135 26.4133 30.333 25.0773 30.333 23.4963C30.333 21.9163 31.135 20.5803 32.083 20.5803C33.032 20.5803 33.833 21.9163 33.833 23.4963C33.833 25.0773 33.032 26.4133 32.083 26.4133ZM33.833 2.49632C33.511 2.49632 33.25 2.75734 33.25 3.08034C33.25 3.40234 33.511 3.66333 33.833 3.66333V5.99632C33.511 5.99632 33.25 6.25734 33.25 6.58034C33.25 6.90234 33.511 7.16333 33.833 7.16333V9.49632C33.511 9.49632 33.25 9.75734 33.25 10.0803C33.25 10.4023 33.511 10.6633 33.833 10.6633V12.9963C33.511 12.9963 33.25 13.2573 33.25 13.5803C33.25 13.9013 33.511 14.1633 33.833 14.1633V16.4963C33.511 16.4963 33.25 16.7573 33.25 17.0793C33.25 17.4013 33.511 17.6633 33.833 17.6633V20.2083C33.822 20.1963 33.809 20.1893 33.798 20.1773C33.691 20.0703 33.579 19.9703 33.461 19.8833C33.446 19.8723 33.43 19.8633 33.414 19.8513C33.303 19.7743 33.188 19.7063 33.069 19.6483C33.046 19.6373 33.024 19.6253 33.002 19.6143C32.873 19.5563 32.741 19.5123 32.605 19.4793C32.576 19.4723 32.547 19.4673 32.518 19.4613C32.376 19.4323 32.231 19.4133 32.083 19.4133H28.583H25.083H21.583H18.083V15.9133C18.405 15.9133 18.667 15.6523 18.667 15.3303C18.667 15.0073 18.405 14.7463 18.083 14.7463V12.4133C18.405 12.4133 18.667 12.1523 18.667 11.8303C18.667 11.5073 18.405 11.2463 18.083 11.2463V8.91333C18.405 8.91333 18.667 8.65234 18.667 8.33034C18.667 8.00734 18.405 7.74632 18.083 7.74632V5.41333C18.405 5.41333 18.667 5.15234 18.667 4.83034C18.667 4.50734 18.405 4.24632 18.083 4.24632V1.91333C18.405 1.91333 18.667 1.65234 18.667 1.33034H21C21 1.65234 21.261 1.91333 21.583 1.91333C21.905 1.91333 22.166 1.65234 22.166 1.33034H24.5C24.5 1.65234 24.761 1.91333 25.083 1.91333C25.405 1.91333 25.666 1.65234 25.666 1.33034H28C28 1.65234 28.261 1.91333 28.583 1.91333C28.905 1.91333 29.166 1.65234 29.166 1.33034H31.5C31.5 1.65234 31.761 1.91333 32.083 1.91333C32.405 1.91333 32.666 1.65234 32.666 1.33034H33.833V2.49632Z" fill="#EE4B8D"/>
<path d="M20.417 3.08035C20.417 3.40235 20.155 3.66335 19.833 3.66335C19.511 3.66335 19.25 3.40235 19.25 3.08035C19.25 2.75735 19.511 2.49634 19.833 2.49634C20.155 2.49634 20.417 2.75735 20.417 3.08035Z" fill="#EE4B8D"/>
<path d="M23.917 3.08035C23.917 3.40235 23.655 3.66335 23.333 3.66335C23.011 3.66335 22.75 3.40235 22.75 3.08035C22.75 2.75735 23.011 2.49634 23.333 2.49634C23.655 2.49634 23.917 2.75735 23.917 3.08035Z" fill="#EE4B8D"/>
<path d="M27.417 3.08035C27.417 3.40235 27.155 3.66335 26.833 3.66335C26.511 3.66335 26.25 3.40235 26.25 3.08035C26.25 2.75735 26.511 2.49634 26.833 2.49634C27.155 2.49634 27.417 2.75735 27.417 3.08035Z" fill="#EE4B8D"/>
<path d="M30.917 3.08035C30.917 3.40235 30.655 3.66335 30.333 3.66335C30.011 3.66335 29.75 3.40235 29.75 3.08035C29.75 2.75735 30.011 2.49634 30.333 2.49634C30.655 2.49634 30.917 2.75735 30.917 3.08035Z" fill="#EE4B8D"/>
<path d="M22.167 4.82935C22.167 5.15235 21.905 5.41335 21.583 5.41335C21.261 5.41335 21 5.15235 21 4.82935C21 4.50735 21.261 4.24634 21.583 4.24634C21.905 4.24634 22.167 4.50735 22.167 4.82935Z" fill="#EE4B8D"/>
<path d="M20.417 6.57935C20.417 6.90235 20.155 7.16335 19.833 7.16335C19.511 7.16335 19.25 6.90235 19.25 6.57935C19.25 6.25735 19.511 5.99634 19.833 5.99634C20.155 5.99634 20.417 6.25735 20.417 6.57935Z" fill="#EE4B8D"/>
<path d="M23.917 6.57935C23.917 6.90235 23.655 7.16335 23.333 7.16335C23.011 7.16335 22.75 6.90235 22.75 6.57935C22.75 6.25735 23.011 5.99634 23.333 5.99634C23.655 5.99634 23.917 6.25735 23.917 6.57935Z" fill="#EE4B8D"/>
<path d="M25.667 4.82935C25.667 5.15235 25.405 5.41335 25.083 5.41335C24.761 5.41335 24.5 5.15235 24.5 4.82935C24.5 4.50735 24.761 4.24634 25.083 4.24634C25.405 4.24634 25.667 4.50735 25.667 4.82935Z" fill="#EE4B8D"/>
<path d="M29.167 4.82935C29.167 5.15235 28.905 5.41335 28.583 5.41335C28.261 5.41335 28 5.15235 28 4.82935C28 4.50735 28.261 4.24634 28.583 4.24634C28.905 4.24634 29.167 4.50735 29.167 4.82935Z" fill="#EE4B8D"/>
<path d="M32.667 4.82935C32.667 5.15235 32.405 5.41335 32.083 5.41335C31.761 5.41335 31.5 5.15235 31.5 4.82935C31.5 4.50735 31.761 4.24634 32.083 4.24634C32.405 4.24634 32.667 4.50735 32.667 4.82935Z" fill="#EE4B8D"/>
<path d="M27.417 6.57935C27.417 6.90235 27.155 7.16335 26.833 7.16335C26.511 7.16335 26.25 6.90235 26.25 6.57935C26.25 6.25735 26.511 5.99634 26.833 5.99634C27.155 5.99634 27.417 6.25735 27.417 6.57935Z" fill="#EE4B8D"/>
<path d="M30.917 6.57935C30.917 6.90235 30.655 7.16335 30.333 7.16335C30.011 7.16335 29.75 6.90235 29.75 6.57935C29.75 6.25735 30.011 5.99634 30.333 5.99634C30.655 5.99634 30.917 6.25735 30.917 6.57935Z" fill="#EE4B8D"/>
<path d="M22.167 8.33035C22.167 8.65235 21.905 8.91335 21.583 8.91335C21.261 8.91335 21 8.65235 21 8.33035C21 8.00735 21.261 7.74634 21.583 7.74634C21.905 7.74634 22.167 8.00735 22.167 8.33035Z" fill="#EE4B8D"/>
<path d="M20.417 10.0793C20.417 10.4023 20.155 10.6633 19.833 10.6633C19.511 10.6633 19.25 10.4023 19.25 10.0793C19.25 9.75735 19.511 9.49634 19.833 9.49634C20.155 9.49634 20.417 9.75735 20.417 10.0793Z" fill="#EE4B8D"/>
<path d="M23.917 10.0793C23.917 10.4023 23.655 10.6633 23.333 10.6633C23.011 10.6633 22.75 10.4023 22.75 10.0793C22.75 9.75735 23.011 9.49634 23.333 9.49634C23.655 9.49634 23.917 9.75735 23.917 10.0793Z" fill="#EE4B8D"/>
<path d="M25.667 8.33035C25.667 8.65235 25.405 8.91335 25.083 8.91335C24.761 8.91335 24.5 8.65235 24.5 8.33035C24.5 8.00735 24.761 7.74634 25.083 7.74634C25.405 7.74634 25.667 8.00735 25.667 8.33035Z" fill="#EE4B8D"/>
<path d="M29.167 8.33035C29.167 8.65235 28.905 8.91335 28.583 8.91335C28.261 8.91335 28 8.65235 28 8.33035C28 8.00735 28.261 7.74634 28.583 7.74634C28.905 7.74634 29.167 8.00735 29.167 8.33035Z" fill="#EE4B8D"/>
<path d="M32.667 8.33035C32.667 8.65235 32.405 8.91335 32.083 8.91335C31.761 8.91335 31.5 8.65235 31.5 8.33035C31.5 8.00735 31.761 7.74634 32.083 7.74634C32.405 7.74634 32.667 8.00735 32.667 8.33035Z" fill="#EE4B8D"/>
<path d="M27.417 10.0793C27.417 10.4023 27.155 10.6633 26.833 10.6633C26.511 10.6633 26.25 10.4023 26.25 10.0793C26.25 9.75735 26.511 9.49634 26.833 9.49634C27.155 9.49634 27.417 9.75735 27.417 10.0793Z" fill="#EE4B8D"/>
<path d="M30.917 10.0793C30.917 10.4023 30.655 10.6633 30.333 10.6633C30.011 10.6633 29.75 10.4023 29.75 10.0793C29.75 9.75735 30.011 9.49634 30.333 9.49634C30.655 9.49634 30.917 9.75735 30.917 10.0793Z" fill="#EE4B8D"/>
<path d="M22.167 11.8293C22.167 12.1523 21.905 12.4133 21.583 12.4133C21.261 12.4133 21 12.1523 21 11.8293C21 11.5073 21.261 11.2463 21.583 11.2463C21.905 11.2463 22.167 11.5073 22.167 11.8293Z" fill="#EE4B8D"/>
<path d="M20.417 13.5804C20.417 13.9024 20.155 14.1633 19.833 14.1633C19.511 14.1633 19.25 13.9024 19.25 13.5804C19.25 13.2574 19.511 12.9963 19.833 12.9963C20.155 12.9963 20.417 13.2574 20.417 13.5804Z" fill="#EE4B8D"/>
<path d="M23.917 13.5804C23.917 13.9024 23.655 14.1633 23.333 14.1633C23.011 14.1633 22.75 13.9024 22.75 13.5804C22.75 13.2574 23.011 12.9963 23.333 12.9963C23.655 12.9963 23.917 13.2574 23.917 13.5804Z" fill="#EE4B8D"/>
<path d="M25.667 11.8293C25.667 12.1523 25.405 12.4133 25.083 12.4133C24.761 12.4133 24.5 12.1523 24.5 11.8293C24.5 11.5073 24.761 11.2463 25.083 11.2463C25.405 11.2463 25.667 11.5073 25.667 11.8293Z" fill="#EE4B8D"/>
<path d="M29.167 11.8293C29.167 12.1523 28.905 12.4133 28.583 12.4133C28.261 12.4133 28 12.1523 28 11.8293C28 11.5073 28.261 11.2463 28.583 11.2463C28.905 11.2463 29.167 11.5073 29.167 11.8293Z" fill="#EE4B8D"/>
<path d="M32.667 11.8293C32.667 12.1523 32.405 12.4133 32.083 12.4133C31.761 12.4133 31.5 12.1523 31.5 11.8293C31.5 11.5073 31.761 11.2463 32.083 11.2463C32.405 11.2463 32.667 11.5073 32.667 11.8293Z" fill="#EE4B8D"/>
<path d="M27.417 13.5804C27.417 13.9024 27.155 14.1633 26.833 14.1633C26.511 14.1633 26.25 13.9024 26.25 13.5804C26.25 13.2574 26.511 12.9963 26.833 12.9963C27.155 12.9963 27.417 13.2574 27.417 13.5804Z" fill="#EE4B8D"/>
<path d="M30.917 13.5804C30.917 13.9024 30.655 14.1633 30.333 14.1633C30.011 14.1633 29.75 13.9024 29.75 13.5804C29.75 13.2574 30.011 12.9963 30.333 12.9963C30.655 12.9963 30.917 13.2574 30.917 13.5804Z" fill="#EE4B8D"/>
<path d="M22.167 15.3293C22.167 15.6523 21.905 15.9133 21.583 15.9133C21.261 15.9133 21 15.6523 21 15.3293C21 15.0073 21.261 14.7463 21.583 14.7463C21.905 14.7463 22.167 15.0073 22.167 15.3293Z" fill="#EE4B8D"/>
<path d="M20.417 17.0793C20.417 17.4023 20.155 17.6633 19.833 17.6633C19.511 17.6633 19.25 17.4023 19.25 17.0793C19.25 16.7573 19.511 16.4963 19.833 16.4963C20.155 16.4963 20.417 16.7573 20.417 17.0793Z" fill="#EE4B8D"/>
<path d="M23.917 17.0793C23.917 17.4023 23.655 17.6633 23.333 17.6633C23.011 17.6633 22.75 17.4023 22.75 17.0793C22.75 16.7573 23.011 16.4963 23.333 16.4963C23.655 16.4963 23.917 16.7573 23.917 17.0793Z" fill="#EE4B8D"/>
<path d="M25.667 15.3293C25.667 15.6523 25.405 15.9133 25.083 15.9133C24.761 15.9133 24.5 15.6523 24.5 15.3293C24.5 15.0073 24.761 14.7463 25.083 14.7463C25.405 14.7463 25.667 15.0073 25.667 15.3293Z" fill="#EE4B8D"/>
<path d="M29.167 15.3293C29.167 15.6523 28.905 15.9133 28.583 15.9133C28.261 15.9133 28 15.6523 28 15.3293C28 15.0073 28.261 14.7463 28.583 14.7463C28.905 14.7463 29.167 15.0073 29.167 15.3293Z" fill="#EE4B8D"/>
<path d="M32.667 15.3293C32.667 15.6523 32.405 15.9133 32.083 15.9133C31.761 15.9133 31.5 15.6523 31.5 15.3293C31.5 15.0073 31.761 14.7463 32.083 14.7463C32.405 14.7463 32.667 15.0073 32.667 15.3293Z" fill="#EE4B8D"/>
<path d="M22.167 18.8304C22.167 19.1524 21.905 19.4133 21.583 19.4133C21.261 19.4133 21 19.1524 21 18.8304C21 18.5074 21.261 18.2463 21.583 18.2463C21.905 18.2463 22.167 18.5074 22.167 18.8304Z" fill="#EE4B8D"/>
<path d="M25.667 18.8304C25.667 19.1524 25.405 19.4133 25.083 19.4133C24.761 19.4133 24.5 19.1524 24.5 18.8304C24.5 18.5074 24.761 18.2463 25.083 18.2463C25.405 18.2463 25.667 18.5074 25.667 18.8304Z" fill="#EE4B8D"/>
<path d="M29.167 18.8304C29.167 19.1524 28.905 19.4133 28.583 19.4133C28.261 19.4133 28 19.1524 28 18.8304C28 18.5074 28.261 18.2463 28.583 18.2463C28.905 18.2463 29.167 18.5074 29.167 18.8304Z" fill="#EE4B8D"/>
<path d="M32.667 18.8304C32.667 19.1524 32.405 19.4133 32.083 19.4133C31.761 19.4133 31.5 19.1524 31.5 18.8304C31.5 18.5074 31.761 18.2463 32.083 18.2463C32.405 18.2463 32.667 18.5074 32.667 18.8304Z" fill="#EE4B8D"/>
<path d="M27.417 17.0793C27.417 17.4023 27.155 17.6633 26.833 17.6633C26.511 17.6633 26.25 17.4023 26.25 17.0793C26.25 16.7573 26.511 16.4963 26.833 16.4963C27.155 16.4963 27.417 16.7573 27.417 17.0793Z" fill="#EE4B8D"/>
<path d="M30.917 17.0793C30.917 17.4023 30.655 17.6633 30.333 17.6633C30.011 17.6633 29.75 17.4023 29.75 17.0793C29.75 16.7573 30.011 16.4963 30.333 16.4963C30.655 16.4963 30.917 16.7573 30.917 17.0793Z" fill="#EE4B8D"/>
</svg>
