<svg width="28" height="33" viewBox="0 0 28 33" fill="none" xmlns="http://www.w3.org/2000/svg">
<path d="M19.34 32.7253H14.05C13.64 32.7253 13.29 32.5853 13.01 32.3053C12.72 32.0253 12.58 31.6863 12.58 31.2883V22.1783C12.58 21.7813 12.72 21.4423 13.01 21.1623C13.29 20.8813 13.64 20.7413 14.05 20.7413H15.47V15.1323C15.47 14.9963 15.41 14.8823 15.3 14.7883C15.2 14.6943 15.06 14.6473 14.91 14.6473H3.06006C2.23006 14.6473 1.51994 14.3603 0.939941 13.7873C0.349941 13.2123 0.0600586 12.5203 0.0600586 11.7103V5.99135C0.0600586 5.19135 0.349941 4.50434 0.939941 3.93034C1.51994 3.35634 2.23006 3.06935 3.06006 3.06935H5.68994V1.66335C5.68994 1.26535 5.83 0.926347 6.12 0.646347C6.4 0.366347 6.75003 0.225342 7.16003 0.225342H26.22C26.63 0.225342 26.97 0.366347 27.26 0.646347C27.54 0.926347 27.6899 1.26535 27.6899 1.66335V6.91335C27.6899 7.31135 27.54 7.65034 27.26 7.93034C26.97 8.21034 26.63 8.35135 26.22 8.35135H7.16003C6.75003 8.35135 6.4 8.21034 6.12 7.93034C5.83 7.65034 5.68994 7.31135 5.68994 6.91335V5.50734H3.06006C2.90006 5.50734 2.76003 5.55434 2.66003 5.64734C2.55003 5.74134 2.5 5.85635 2.5 5.99135V11.7103C2.5 11.8563 2.55003 11.9764 2.66003 12.0694C2.76003 12.1634 2.90006 12.2103 3.06006 12.2103H14.91C15.73 12.2103 16.43 12.4973 17.02 13.0714C17.61 13.6454 17.91 14.3323 17.91 15.1323V20.7413H19.34C19.75 20.7413 20.1 20.8813 20.38 21.1623C20.66 21.4423 20.8 21.7813 20.8 22.1783V31.2883C20.8 31.6863 20.66 32.0253 20.38 32.3053C20.1 32.5853 19.75 32.7253 19.34 32.7253ZM15.02 30.2883H18.36V23.1794H15.02V30.2883ZM8.12 5.91335H25.25V2.66335H8.12V5.91335Z" fill="#EE4B8D"/>
</svg>
