<svg width="616" height="460" viewBox="0 0 616 460" fill="none" xmlns="http://www.w3.org/2000/svg">
<path d="M580.58 459.663H35.2747V409.531H580.58V459.663Z" fill="#EF4C8D"/>
<path d="M65.2618 326.859C61.4218 322.298 55.2164 320.018 46.6458 320.018C38.0724 320.018 31.8578 322.298 28.0004 326.859C24.1418 331.419 22.2124 338.215 22.2124 347.242C22.2124 356.273 24.1418 363.055 28.0004 367.599C31.8578 372.141 38.0724 374.411 46.6458 374.411C55.2164 374.411 61.4218 372.141 65.2618 367.599C69.1004 363.055 71.0204 356.273 71.0204 347.242C71.0204 338.215 69.1004 331.419 65.2618 326.859ZM80.8551 379.629C73.0818 386.453 61.6778 389.863 46.6458 389.863C31.6111 389.863 20.1978 386.453 12.4058 379.629C4.61378 372.807 0.717773 362.002 0.717773 347.215C0.717773 332.429 4.61378 321.633 12.4058 314.829C20.1978 308.025 31.6111 304.622 46.6458 304.622C61.6778 304.622 73.0818 308.025 80.8551 314.829C88.6284 321.633 92.5151 332.429 92.5151 347.215C92.5151 362.002 88.6284 372.807 80.8551 379.629Z" fill="#E5165F"/>
<path d="M122.792 340.544V374.183C126.06 375.059 130.222 375.495 135.278 375.495C140.333 375.495 143.973 374.032 146.197 371.104C148.421 368.179 149.533 363.446 149.533 356.907C149.533 350.37 148.44 345.628 146.254 342.683C144.068 339.738 140.372 338.262 135.164 338.262C131.82 338.262 127.696 339.023 122.792 340.544ZM103.064 309.868C103.064 308.842 103.396 307.996 104.061 307.331C104.726 306.667 105.552 306.334 106.541 306.334H119.313C120.301 306.334 121.128 306.667 121.793 307.331C122.458 307.996 122.792 308.842 122.792 309.868V327.372C128.949 325.435 134.441 324.463 139.269 324.463C148.621 324.463 156.052 327.25 161.564 332.818C167.074 338.387 169.83 346.415 169.83 356.907C169.83 378.46 157.762 389.238 133.625 389.238C128.113 389.238 122.402 388.618 116.49 387.384C110.58 386.148 106.104 384.638 103.064 382.851V309.868Z" fill="#E5165F"/>
<path d="M200.164 342.026C197.807 345.106 196.629 350.029 196.629 356.793C196.629 363.559 197.807 368.501 200.164 371.617C202.521 374.735 206.237 376.294 211.311 376.294C216.385 376.294 220.111 374.735 222.487 371.617C224.861 368.501 226.051 363.559 226.051 356.793C226.051 350.029 224.861 345.106 222.487 342.026C220.111 338.947 216.385 337.406 211.311 337.406C206.237 337.406 202.521 338.947 200.164 342.026ZM185.739 381.025C179.809 375.553 176.844 367.483 176.844 356.822C176.844 346.161 179.809 338.102 185.739 332.647C191.669 327.193 200.192 324.463 211.311 324.463C222.429 324.463 230.953 327.193 236.884 332.647C242.813 338.102 245.779 346.161 245.779 356.822C245.779 367.483 242.813 375.553 236.884 381.025C230.953 386.499 222.429 389.237 211.311 389.237C200.192 389.237 191.669 386.499 185.739 381.025Z" fill="#E5165F"/>
<path d="M256.497 384.617V330.508C256.497 329.481 256.831 328.646 257.496 328C258.16 327.353 258.987 327.03 259.975 327.03H272.747C273.775 327.03 274.608 327.364 275.255 328.028C275.901 328.694 276.225 329.52 276.225 330.508V384.617C276.225 385.645 275.891 386.48 275.227 387.128C274.561 387.773 273.736 388.096 272.747 388.096H259.975C258.949 388.096 258.113 387.773 257.468 387.128C256.82 386.48 256.497 385.645 256.497 384.617ZM256.269 313.688V311.75C256.269 309.736 256.849 308.138 258.008 306.96C259.168 305.782 260.775 305.193 262.827 305.193H269.897C271.912 305.193 273.505 305.772 274.688 306.932C275.863 308.09 276.452 309.697 276.452 311.75V313.688C276.452 315.704 275.872 317.3 274.716 318.477C273.553 319.657 271.949 320.245 269.897 320.245H262.827C260.811 320.245 259.216 319.657 258.037 318.477C256.859 317.3 256.269 315.704 256.269 313.688Z" fill="#E5165F"/>
<path d="M320.242 375.724L328.053 375.039H330.162C331.19 375.039 332.035 375.363 332.702 376.009C333.366 376.655 333.698 377.491 333.698 378.517V384.617C333.698 385.455 333.366 386.205 332.702 386.869C332.035 387.535 331.19 387.945 330.162 388.096C326.285 388.856 321.23 389.237 314.997 389.237C298.651 389.237 290.479 380.684 290.479 363.579V309.868C290.479 308.841 290.811 307.996 291.478 307.331C292.141 306.667 292.967 306.333 293.958 306.333H306.729C307.717 306.333 308.543 306.667 309.211 307.331C309.874 307.996 310.207 308.841 310.207 309.868V328.912H326.115C327.103 328.912 327.931 329.235 328.595 329.88C329.261 330.529 329.593 331.363 329.593 332.391V339.175C329.593 340.201 329.261 341.039 328.595 341.685C327.931 342.331 327.103 342.653 326.115 342.653H310.207V363.579C310.207 367.456 311.119 370.449 312.943 372.559C314.769 374.668 317.202 375.724 320.242 375.724Z" fill="#E5165F"/>
<path d="M386.268 340.087L377.488 339.745C372.356 339.745 367.455 342.559 362.778 348.183V384.617C362.778 385.645 362.444 386.481 361.78 387.127C361.115 387.774 360.287 388.097 359.299 388.097H346.527C345.502 388.097 344.666 387.774 344.019 387.127C343.372 386.481 343.05 385.645 343.05 384.617V329.141C343.05 328.114 343.382 327.269 344.048 326.602C344.711 325.939 345.539 325.605 346.527 325.605H359.299C360.327 325.605 361.162 325.939 361.808 326.602C362.455 327.269 362.778 328.114 362.778 329.141V332.731C366.655 329.921 370.39 327.838 373.982 326.489C377.574 325.139 382.279 324.463 388.094 324.463C389.122 324.463 389.964 324.798 390.631 325.462C391.295 326.127 391.63 326.954 391.63 327.943V336.61C391.63 337.635 391.295 338.471 390.631 339.118C389.964 339.766 389.122 340.087 388.094 340.087H386.268Z" fill="#E5165F"/>
<path d="M426.294 313.232L429.09 302.512C430.573 298.142 433.06 295.957 436.557 295.957H441.748C444.256 295.957 445.889 296.754 446.652 298.35C446.954 298.96 447.097 299.701 447.077 300.574C447.058 301.449 446.669 302.477 445.91 303.653L439.752 314.429C437.66 318.002 435.322 319.789 432.738 319.789H430.058C427.245 319.789 425.84 318.554 425.84 316.082C425.84 315.285 425.99 314.334 426.294 313.232ZM414.89 369.166C414.89 373.918 417.866 376.294 423.816 376.294C429.765 376.294 435.494 374.584 441.005 371.162V362.266H423.501C420.916 362.266 418.768 362.932 417.058 364.262C415.613 365.517 414.89 367.152 414.89 369.166ZM402.718 383.989C397.645 380.493 395.108 375.552 395.108 369.166C395.108 362.78 397.606 357.876 402.605 354.456C407.602 351.036 414.113 349.324 422.133 349.324H441.005C441.005 344.801 440.037 341.685 438.1 339.974C436.388 338.261 433.185 337.406 428.49 337.406C423.796 337.406 420.508 338.557 418.626 340.857C416.746 343.157 414.436 344.306 411.7 344.306H403.205C400.885 344.306 399.705 343.148 399.668 340.829C399.668 329.921 410.026 324.464 430.742 324.464C439.789 324.464 446.917 326.366 452.124 330.165C457.901 334.537 460.772 340.924 460.734 349.324V384.617C460.734 386.936 459.574 388.096 457.256 388.096H446.252C443.933 388.096 442.773 386.936 442.773 384.617V382.852C436.842 387.146 429.953 389.284 422.104 389.264C414.256 389.245 407.793 387.488 402.718 383.989Z" fill="#E5165F"/>
<path d="M494.83 342.682C492.663 345.628 491.579 350.35 491.579 356.85C491.579 363.35 492.607 368.082 494.66 371.046C496.711 374.013 499.8 375.494 503.923 375.494C508.048 375.494 512.848 373.784 518.32 370.364V340.544C513.418 339.024 509.294 338.262 505.948 338.262C500.703 338.262 496.996 339.737 494.83 342.682ZM499.164 389.237C491.219 389.237 484.578 386.441 479.236 380.856C473.895 375.266 471.226 367.257 471.226 356.821C471.226 346.386 473.991 338.386 479.522 332.818C485.052 327.25 492.492 324.464 501.843 324.464C506.67 324.464 512.164 325.434 518.32 327.373V309.869C518.32 308.841 518.654 307.996 519.319 307.33C519.983 306.666 520.81 306.333 521.8 306.333H534.515C535.54 306.333 536.386 306.666 537.052 307.33C537.715 307.996 538.05 308.841 538.05 309.869V384.617C538.05 385.606 537.715 386.433 537.052 387.1C536.386 387.764 535.54 388.097 534.515 388.097H523.568C522.54 388.097 521.703 387.764 521.058 387.1C520.412 386.433 520.088 385.606 520.088 384.617V382.852C514.082 387.108 507.108 389.237 499.164 389.237Z" fill="#E5165F"/>
<path d="M568.553 350.863H595.065C594.687 341.894 590.285 337.406 581.865 337.406C573.447 337.406 569.009 341.894 568.553 350.863ZM557.32 380.911C551.467 375.362 548.54 367.37 548.54 356.935C548.54 346.502 551.485 338.482 557.377 332.874C563.268 327.269 571.44 324.463 581.896 324.463C592.348 324.463 600.501 327.193 606.356 332.647C612.208 338.102 615.136 345.922 615.136 356.11V359.358C615.136 360.386 614.804 361.231 614.139 361.897C613.472 362.561 612.628 362.894 611.6 362.894H568.668C569.045 367.57 570.387 370.971 572.688 373.101C574.985 375.23 578.664 376.294 583.72 376.294C588.775 376.294 592.235 375.154 594.096 372.871C595.959 370.593 598.259 369.433 600.996 369.394H609.491C610.519 369.394 611.363 369.726 612.028 370.391C612.693 371.058 613.025 371.902 613.025 372.93C613.025 383.838 602.631 389.275 581.837 389.237C571.347 389.237 563.175 386.462 557.32 380.911Z" fill="#E5165F"/>
<path d="M50.3237 436.904C50.3237 431.257 54.5051 427.253 60.3317 427.253C63.7277 427.253 66.5517 428.648 68.0531 431.292L65.4424 432.972C64.2277 431.112 62.3691 430.256 60.2957 430.256C56.5784 430.256 53.7904 432.865 53.7904 436.904C53.7904 441.014 56.5784 443.588 60.2957 443.588C62.3691 443.588 64.2277 442.73 65.4424 440.872L68.0531 442.516C66.5517 445.161 63.7277 446.59 60.3317 446.59C54.5051 446.59 50.3237 442.55 50.3237 436.904Z" fill="white"/>
<path d="M74.2369 435.581H86.3903C86.0329 432.399 83.6383 430.149 80.3143 430.149C77.0249 430.149 74.5943 432.365 74.2369 435.581ZM89.6076 438.049H74.2369C74.6663 441.373 77.3476 443.587 81.0996 443.587C83.3169 443.587 85.1743 442.837 86.5689 441.299L88.4636 443.517C86.7476 445.517 84.1383 446.59 80.9929 446.59C74.8796 446.59 70.8049 442.551 70.8049 436.903C70.8049 431.291 74.8449 427.253 80.3143 427.253C85.7836 427.253 89.6783 431.185 89.6783 437.011C89.6783 437.297 89.6436 437.726 89.6076 438.049Z" fill="white"/>
<path d="M108.697 430.434H101.762V446.376H98.3299V430.434H91.3953V427.432H108.697V430.434Z" fill="white"/>
<path d="M125.212 440.014C125.212 437.51 123.638 436.438 120.493 436.404L115.989 436.332V443.766L120.493 443.804C123.602 443.838 125.212 442.55 125.212 440.014ZM128.714 440.049C128.714 444.158 125.854 446.446 120.78 446.413L112.558 446.376V427.432H115.989V433.83L121.316 433.865C126.141 433.901 128.714 436.153 128.714 440.049Z" fill="white"/>
<path d="M159.598 436.904C159.598 432.901 156.846 430.256 153.2 430.256C149.59 430.256 146.838 432.901 146.838 436.904C146.838 440.942 149.59 443.588 153.2 443.588C156.846 443.588 159.598 440.942 159.598 436.904ZM163.066 436.904C163.066 442.73 159.026 446.59 153.486 446.59C150.805 446.59 148.446 445.553 146.874 443.517V453.31H143.442V427.432H146.73V430.433C148.266 428.325 150.698 427.253 153.486 427.253C159.026 427.253 163.066 431.112 163.066 436.904Z" fill="white"/>
<path d="M182.869 436.904C182.869 432.865 180.152 430.256 176.506 430.256C172.861 430.256 170.109 432.865 170.109 436.904C170.109 440.942 172.861 443.588 176.506 443.588C180.152 443.588 182.869 440.942 182.869 436.904ZM166.641 436.904C166.641 431.257 170.822 427.253 176.506 427.253C182.19 427.253 186.336 431.257 186.336 436.904C186.336 442.55 182.19 446.59 176.506 446.59C170.822 446.59 166.641 442.55 166.641 436.904Z" fill="white"/>
<path d="M205.675 440.871C205.675 444.303 201.886 446.626 196.846 446.626C194.022 446.626 191.234 445.84 189.125 444.482L190.162 441.871C191.985 443.052 194.487 443.694 196.811 443.694C200.027 443.694 202.137 442.515 202.137 440.586C202.137 438.835 200.493 437.834 197.703 437.834H194.237V435.366H197.454C199.991 435.366 201.599 434.438 201.599 432.828C201.599 431.112 199.67 430.112 196.775 430.112C194.843 430.112 192.878 430.614 190.806 431.576L189.875 428.934C192.342 427.68 194.702 427.18 197.131 427.18C201.743 427.18 205.139 429.255 205.139 432.33C205.139 434.223 203.781 435.76 201.707 436.51C204.246 437.155 205.675 438.691 205.675 440.871Z" fill="white"/>
<path d="M211.252 427.432H214.684V435.474H225.479V427.432H228.911V446.376H225.479V438.44H214.684V446.376H211.252V427.432Z" fill="white"/>
<path d="M235.953 427.432H239.385V441.23L251.002 427.432H254.11V446.376H250.68V432.579L239.098 446.376H235.953V427.432Z" fill="white"/>
<path d="M276.238 427.432V446.376H272.806V438.727C270.877 439.62 268.804 440.156 266.694 440.156C262.084 440.156 259.294 438.084 259.294 433.579V427.432H262.726V433.366C262.726 436.046 264.513 437.334 267.409 437.334C269.125 437.334 270.984 436.868 272.806 436.082V427.432H276.238Z" fill="white"/>
<path d="M283.245 427.432H286.677V435.474H297.47V427.432H300.902V446.376H297.47V438.44H286.677V446.376H283.245V427.432Z" fill="white"/>
<path d="M326.676 427.432H330.107V446.376H326.676V427.432ZM320.384 440.015C320.384 437.511 318.776 436.439 315.667 436.404L311.377 436.332V443.767L315.667 443.804C318.74 443.839 320.384 442.551 320.384 440.015ZM323.852 440.049C323.852 444.159 320.992 446.447 315.916 446.413L307.945 446.376V427.432H311.377V433.831L316.488 433.864C321.279 433.901 323.852 436.152 323.852 440.049Z" fill="white"/>
<path d="M348.982 446.376L343.512 439.12L337.971 446.376H334.147L341.619 436.69L334.506 427.432H338.33L343.548 434.259L348.731 427.432H352.484L345.336 436.69L352.878 446.376H348.982Z" fill="white"/>
<path d="M388.658 427.432V446.376H385.548V432.543L378.47 444.232H376.968L369.963 432.507V446.376H366.818V427.432H370.356L377.792 440.228L385.44 427.432H388.658Z" fill="white"/>
<path d="M407.141 440.586V437.942H401.849C398.454 437.942 397.489 439.263 397.489 440.871C397.489 442.767 399.062 443.946 401.671 443.946C404.245 443.946 406.281 442.767 407.141 440.586ZM410.571 434.938V446.377H407.318V443.874C406.174 445.59 404.066 446.59 401.099 446.59C396.81 446.59 394.094 444.303 394.094 441.014C394.094 437.975 396.059 435.474 401.706 435.474H407.141V434.794C407.141 431.899 405.461 430.219 402.063 430.219C399.813 430.219 397.525 431.005 396.059 432.257L394.629 429.683C396.595 428.111 399.418 427.253 402.457 427.253C407.641 427.253 410.571 429.754 410.571 434.938Z" fill="white"/>
<path d="M431.053 430.434H420.544V446.376H417.113V427.432H431.053V430.434Z" fill="white"/>
<path d="M446.353 440.586V437.942H441.062C437.666 437.942 436.702 439.263 436.702 440.871C436.702 442.767 438.274 443.946 440.883 443.946C443.457 443.946 445.494 442.767 446.353 440.586ZM449.785 434.938V446.377H446.531V443.874C445.386 445.59 443.278 446.59 440.313 446.59C436.022 446.59 433.306 444.303 433.306 441.014C433.306 437.975 435.271 435.474 440.919 435.474H446.353V434.794C446.353 431.899 444.673 430.219 441.277 430.219C439.025 430.219 436.738 431.005 435.271 432.257L433.842 429.683C435.809 428.111 438.631 427.253 441.67 427.253C446.854 427.253 449.785 429.754 449.785 434.938Z" fill="white"/>
<path d="M470.232 440.871C470.232 444.303 466.442 446.626 461.402 446.626C458.577 446.626 455.79 445.84 453.681 444.482L454.717 441.871C456.54 443.052 459.041 443.694 461.366 443.694C464.584 443.694 466.692 442.515 466.692 440.586C466.692 438.835 465.048 437.834 462.26 437.834H458.793V435.366H462.009C464.546 435.366 466.156 434.438 466.156 432.828C466.156 431.112 464.225 430.112 461.329 430.112C459.4 430.112 457.433 430.614 455.362 431.576L454.432 428.934C456.898 427.68 459.258 427.18 461.688 427.18C466.3 427.18 469.694 429.255 469.694 432.33C469.694 434.223 468.336 435.76 466.262 436.51C468.801 437.155 470.232 438.691 470.232 440.871Z" fill="white"/>
<path d="M475.807 427.432H479.238V441.23L490.855 427.432H493.965V446.376H490.534V432.579L478.951 446.376H475.807V427.432Z" fill="white"/>
<path d="M500.973 427.432H504.405V435.474H515.201V427.432H518.631V446.376H515.201V438.44H504.405V446.376H500.973V427.432Z" fill="white"/>
<path d="M540.15 436.904C540.15 432.865 537.434 430.256 533.789 430.256C530.142 430.256 527.39 432.865 527.39 436.904C527.39 440.942 530.142 443.588 533.789 443.588C537.434 443.588 540.15 440.942 540.15 436.904ZM523.922 436.904C523.922 431.257 528.106 427.253 533.789 427.253C539.471 427.253 543.618 431.257 543.618 436.904C543.618 442.55 539.471 446.59 533.789 446.59C528.106 446.59 523.922 442.55 523.922 436.904Z" fill="white"/>
<path d="M562.098 440.943C562.098 438.977 560.848 438.048 558.023 438.048H552.304V443.731H557.808C560.632 443.731 562.098 442.873 562.098 440.943ZM552.304 435.581H557.452C560.062 435.581 561.456 434.616 561.456 432.795C561.456 430.971 560.062 430.077 557.452 430.077H552.304V435.581ZM565.53 441.157C565.53 444.447 563.099 446.376 558.059 446.376H548.944V427.432H557.736C562.206 427.432 564.887 429.183 564.887 432.293C564.887 434.329 563.743 435.797 561.848 436.547C564.35 437.189 565.53 438.763 565.53 441.157Z" fill="white"/>
<mask id="mask0_2061_175" style="mask-type:luminance" maskUnits="userSpaceOnUse" x="86" y="0" width="444" height="257">
<path d="M86.4534 0.192073H529.397V256.023H86.4534V0.192073Z" fill="white"/>
</mask>
<g mask="url(#mask0_2061_175)">
<path d="M529.397 71.0294V165.985C529.397 170.615 517.992 175.795 502.743 175.795C487.491 175.795 476.087 170.615 476.087 165.985V73.96C477.577 74.6654 479.016 75.032 479.879 75.1894C486.549 76.5227 493.195 77.2027 499.707 77.2027C505.044 77.2027 510.303 76.7587 515.455 75.8694C518.332 75.3454 524.767 74.2214 529.397 71.0294Z" fill="#E5165F"/>
</g>
<mask id="mask1_2061_175" style="mask-type:luminance" maskUnits="userSpaceOnUse" x="86" y="0" width="444" height="257">
<path d="M86.4534 0.192073H529.397V256.023H86.4534V0.192073Z" fill="white"/>
</mask>
<g mask="url(#mask1_2061_175)">
<path d="M503.004 64.1237L503.16 71.893C495.888 72.1797 488.433 71.5784 480.9 70.0624C478.676 69.617 476.819 68.6757 476.192 67.681C476.139 67.6024 476.112 67.4984 476.087 67.4197V66.1904C476.584 64.7517 479.016 63.261 482.285 62.4237C489.505 60.593 496.857 61.1944 503.004 64.1237Z" fill="#EF4C8D"/>
</g>
<mask id="mask2_2061_175" style="mask-type:luminance" maskUnits="userSpaceOnUse" x="86" y="0" width="444" height="257">
<path d="M86.4534 0.192073H529.397V256.023H86.4534V0.192073Z" fill="white"/>
</mask>
<g mask="url(#mask2_2061_175)">
<path d="M505.253 59.3887C498.006 55.9367 489.375 55.23 481.003 57.3754C480.037 57.61 478.546 58.0554 477.002 58.7874L475.093 54.6287L476.374 54.0274C484.614 50.574 493.115 48.7687 501.303 48.7687C503.266 48.7687 505.201 48.8727 507.111 49.0834C515.402 49.946 529.397 53.634 529.397 61.8474C529.397 66.0074 524.401 68.9887 514.565 70.7154C510.825 71.37 507.031 71.762 503.161 71.8927L503.003 64.1234L505.253 59.3887Z" fill="#EF4C8D"/>
</g>
<mask id="mask3_2061_175" style="mask-type:luminance" maskUnits="userSpaceOnUse" x="86" y="0" width="444" height="257">
<path d="M86.4534 0.192073H529.397V256.023H86.4534V0.192073Z" fill="white"/>
</mask>
<g mask="url(#mask3_2061_175)">
<path d="M272.912 147.387L475.092 54.628L477.001 58.7867C474.465 59.9907 471.769 61.952 470.985 64.9867H470.855V65.64C470.697 66.504 470.697 67.3414 470.855 68.1254V163.239L269.328 255.709V151.52V149.008L272.912 147.387Z" fill="#EF4C8D"/>
</g>
<mask id="mask4_2061_175" style="mask-type:luminance" maskUnits="userSpaceOnUse" x="86" y="0" width="444" height="257">
<path d="M86.4534 0.192073H529.397V256.023H86.4534V0.192073Z" fill="white"/>
</mask>
<g mask="url(#mask4_2061_175)">
<path d="M409.46 64.1497L311.313 109.195L270.061 90.2831V0.19241L409.46 64.1497Z" fill="#D1D3D4"/>
</g>
<mask id="mask5_2061_175" style="mask-type:luminance" maskUnits="userSpaceOnUse" x="86" y="0" width="444" height="257">
<path d="M86.4534 0.192073H529.397V256.023H86.4534V0.192073Z" fill="white"/>
</mask>
<g mask="url(#mask5_2061_175)">
<path d="M264.829 0.192043V90.2827L223.604 109.195L125.429 64.1494L264.829 0.192043Z" fill="#EDEDEE"/>
</g>
<mask id="mask6_2061_175" style="mask-type:luminance" maskUnits="userSpaceOnUse" x="86" y="0" width="444" height="257">
<path d="M86.4534 0.192073H529.397V256.023H86.4534V0.192073Z" fill="white"/>
</mask>
<g mask="url(#mask6_2061_175)">
<path d="M264.097 151.415V256.024L86.4546 174.513V67.6027L260.356 147.387L264.097 149.113V151.415Z" fill="#E5165F"/>
</g>
</svg>
