<svg width="601" height="235" viewBox="0 0 601 235" fill="none" xmlns="http://www.w3.org/2000/svg">
<path d="M56.9001 44.6C56.5001 44.6 56.3001 44.7 56.3001 44.9V68.3C56.3001 68.5 54.4001 68.5 54.4001 68.2C54.4001 66.2 53.8001 64.4 51.4001 64.4C47.3001 64.4 44.1001 69.5 34.0001 69.5C16.8001 69.5 4.7001 55.8 4.7001 34.8C4.7001 14.3 18.9001 0 36.0001 0C41.2001 0 45.7001 2.5 48.6001 2.5C51.1001 2.5 52.9001 1.3 53.1001 0.300003C53.1001 0.100003 54.6001 0.100003 54.6001 0.300003V20.1C54.6001 20.3 53.1001 20.3 53.1001 20.1C53.1001 10.8 45.2001 1.89999 36.0001 1.89999C27.2001 1.89999 16.1001 7.5 16.1001 34.8C16.1001 64.5 26.0001 67.7 34.0001 67.7C42.0001 67.7 45.8001 64.1 45.8001 59V44.9C45.8001 44.7 45.6001 44.6 45.1001 44.6H37.4001C37.2001 44.6 37.2001 42.7 37.4001 42.7H64.6001C64.8001 42.7 64.8001 44.6 64.6001 44.6H56.9001ZM69.0001 67.9C68.9001 67.9 68.9001 66 69.0001 66H76.7001C77.0001 66 77.3001 65.9 77.3001 65.6V3.8C77.3001 3.4 77.0001 3.39999 76.7001 3.39999H69.0001C68.9001 3.39999 68.9001 1.5 69.0001 1.5H95.6001C95.8001 1.5 95.8001 3.39999 95.6001 3.39999H87.8001C87.5001 3.39999 87.3001 3.4 87.3001 3.8V65.6C87.3001 65.9 87.5001 66 87.8001 66H95.6001C95.8001 66 95.8001 67.9 95.6001 67.9C95.7001 67.9 69.0001 67.9 69.0001 67.9ZM217.1 3.5C216.7 3.5 216.6 3.49999 216.6 3.89999V69.1C216.6 69.4 215.1 69.5 214.8 69.1L175.6 4.7V65.6C175.6 65.9 175.6 66 176 66H183.8C183.9 66 183.9 67.9 183.8 67.9H165.7C165.4 67.9 165.4 66 165.7 66H173.3C173.8 66 173.9 65.9 173.9 65.6V3.8C173.9 3.4 173.8 3.39999 173.3 3.39999H165.7C165.4 3.39999 165.4 1.5 165.7 1.5H184.8C185.5 1.5 185.8 1.9 186.8 3.2L215 49.8V3.8C215 3.4 214.8 3.39999 214.4 3.39999H206.7C206.4 3.39999 206.4 1.5 206.7 1.5H224.7C224.9 1.5 224.9 3.39999 224.7 3.39999H217.1V3.5ZM277.3 19.6C277.3 10.9 272.5 3.5 261.8 3.5H249.6C249.1 3.5 248.9 3.49999 248.9 3.89999V33H252.5C259.4 33 263.7 28.8 263.7 22.3C263.7 22.1 265.4 22.1 265.4 22.3V45.5C265.4 45.8 263.7 45.8 263.7 45.5C263.7 39.1 259.4 34.8 252.5 34.8H248.9V65.6C248.9 65.9 249.1 66 249.6 66H257.2C257.4 66 257.4 67.9 257.2 67.9H231.4C231.3 67.9 231.3 66 231.4 66H238.3C238.6 66 238.8 65.9 238.8 65.6V3.8C238.8 3.4 238.6 3.39999 238.3 3.39999H231.4C231.3 3.39999 231.3 1.5 231.4 1.5H278.7C278.9 1.5 279 1.7 279 1.8V19.5C279 19.7 277.3 19.7 277.3 19.6ZM101.5 90.9C101.7 90.9 101.7 91.1 101.7 91.1V128.6C101.5 128.7 101 128.7 100.3 128.7C99.6001 128.7 99.1001 128.6 98.9001 128.6C98.9001 118.8 96.1001 110.5 90.9001 104.4C85.1001 97.7 76.3001 94.1 65.5001 94.1H39.3001C38.3001 94.1 37.6001 94.1 37.6001 95.2V157.6H45.6001C60.3001 157.6 69.8001 148.6 69.9001 134.7C70.1001 134.6 70.6001 134.6 71.3001 134.6C72.0001 134.6 72.5001 134.7 72.7001 134.7V186.5C72.5001 186.6 72.0001 186.7 71.3001 186.7C70.6001 186.7 70.0001 186.6 69.9001 186.5C69.9001 179.6 67.6001 173.3 63.4001 168.6C58.9001 163.5 52.8001 160.9 45.6001 160.9H37.6001V227C37.6001 228.1 38.8001 228.1 39.3001 228.1H55.3001C55.5001 228.7 55.5001 230.8 55.3001 231.4H0.800098C0.700098 230.7 0.700098 228.8 0.800098 228.1H15.2001C16.4001 228.1 16.5001 227.4 16.5001 227V95.3C16.5001 94.2 15.7001 94.2 15.2001 94.2H0.800098C0.700098 93.5 0.700098 91.6 0.800098 90.9H101.5ZM350.5 226C347.7 229 345.3 229.9 340.7 229.9C335.3 229.9 329 227.3 329 215V197C329 185.6 325.4 175.7 318.5 168.6C311.1 160.9 300.1 156.6 286.9 156.6V156.3C297.7 156.3 309.2 153.3 317.7 148.6C325.2 144.5 334.1 136.8 334.1 123.5C334.1 102.4 317.4 90.9 287 90.9H224.9C224.7 91.5 224.7 93.6 224.9 94.2H239.2C240 94.2 240.8 94.2 240.8 95.3V227.1C240.8 228.2 239.6 228.2 239.2 228.2H224.9C224.7 228.8 224.7 230.9 224.9 231.5H282.3V228.2H263.5C262.9 228.2 261.7 228.2 261.7 227.1V158.1H278.2C287.4 158.1 294.2 159.8 299 163.2C304.5 167.1 307.2 173.3 307.2 181.7V196.5C307.2 209.8 310 219.8 315.5 226.3C320.3 232 327 234.8 335.3 234.8C342.1 234.8 347.6 232.6 351.9 228C352 227.7 351 226.4 350.5 226ZM262.1 154.8H261.7V95.3C261.7 94.2 262.5 94.2 263.5 94.2H282.6C301.3 94.2 312.9 99.2 312.9 124.4C312.9 149.7 300.4 154.9 281.7 154.9H262.1V154.8ZM473.8 229.9C466.5 229.9 463.5 221.6 462.1 197.1C461.3 184.1 457.6 174.2 451 167.5C444 160.4 433.6 156.6 419.9 156.6V156.3C430.7 156.3 442.3 153.3 450.7 148.6C458.2 144.5 467.1 136.8 467.1 123.5C467.1 102.4 450.4 90.9 420 90.9H358C357.8 91.5 357.8 93.6 358 94.2H372.3C373.1 94.2 373.9 94.2 373.9 95.3V227.1C373.9 228.2 372.7 228.2 372.3 228.2H358C357.8 228.8 357.8 230.9 358 231.5H413.6V228.2H396.6C396 228.2 394.9 228.2 394.9 227.1V158.1H411.4C430.3 158.1 438.7 169.3 440.5 196.6C441.4 210.7 444.4 220.6 449.6 226.9C454.1 232.3 460.3 235 468.7 235C475.5 235 481 232.8 485.4 228.1C485.4 227.6 485.4 226.3 485.4 225.2C485.4 224.8 485.4 224.5 485.4 224.1C483 226.5 478.8 229.9 473.8 229.9ZM395.2 154.8H394.9V95.3C394.9 94.2 395.7 94.2 396.6 94.2H415.7C434.4 94.2 446 99.2 446 124.4C446 149.7 433.5 154.9 414.8 154.9C414.8 154.8 395.2 154.8 395.2 154.8ZM468.3 3.5C467.9 3.5 467.8 3.49999 467.8 3.89999V69.1C467.8 69.4 466.3 69.5 466 69.1L426.8 4.7V65.6C426.8 65.9 426.8 66 427.2 66H435C435.1 66 435.1 67.9 435 67.9H416.9C416.6 67.9 416.6 66 416.9 66H424.5C425 66 425.1 65.9 425.1 65.6V3.8C425.1 3.4 425 3.39999 424.5 3.39999H416.9C416.6 3.39999 416.6 1.5 416.9 1.5H436C436.7 1.5 437 1.9 438 3.2L466.2 49.8V3.8C466.2 3.4 466 3.39999 465.6 3.39999H457.9C457.6 3.39999 457.6 1.5 457.9 1.5H475.9C476.1 1.5 476.1 3.39999 475.9 3.39999H468.3V3.5ZM531.2 69.3C531 68.2 529.7 66.5 527.2 66.5C523 66.5 517 69.5 512 69.5C495.3 69.5 482.9 53.3 482.9 34.8C482.9 16.2 494.9 0 511.6 0C515.9 0 520.9 2.5 525 2.5C527.7 2.5 529.3 1.3 529.5 0.300003C529.5 0.100003 531.2 0.100003 531.2 0.300003V21C531.2 21.2 529.5 21.2 529.5 21C529.5 11.7 520.3 1.89999 511.6 1.89999C507.6 1.89999 503.8 2.69999 500.8 5.39999C496.3 9.69999 493.9 19 493.9 34.8C493.9 50.7 496.3 59.9 500.8 64.2C503.8 66.9 508 67.7 512 67.7C522.8 67.7 531.3 58.9 531.3 46.7C531.3 46.5 532.9 46.5 532.9 46.7V69.3C532.8 69.4 531.3 69.4 531.2 69.3ZM572.5 0C556.1 0 544.4 16.2 544.4 34.8C544.4 54 557 69.5 572.5 69.5C588.1 69.5 600.7 54 600.7 34.8C600.7 15.5 588.1 0 572.5 0ZM583.1 64.2C580.2 66.9 576.7 67.7 572.4 67.7C568.1 67.7 564.7 66.9 561.9 64.2C557.5 59.8 555.2 52.9 555.2 34.8C555.2 19 557.5 9.69999 561.9 5.39999C564.7 2.79999 568.2 1.89999 572.4 1.89999C576.6 1.89999 580.2 2.69999 583.1 5.39999C587.4 9.69999 589.7 19 589.7 34.8C589.8 52.9 587.5 59.8 583.1 64.2ZM214.6 90.9C214.6 90.9 214.6 91.1 214.6 91.2V128.7C214.4 128.8 213.9 128.8 213.1 128.8C212.4 128.8 211.8 128.7 211.6 128.7C211.6 119.3 208.2 110.7 202.1 104.5C195.5 97.8 186 94.2 174.8 94.2H150.6C149.4 94.2 148.6 94.2 148.6 95.3V157.7H157C171.9 157.7 180.9 149.1 180.9 134.8C181.1 134.7 181.6 134.7 182.3 134.7C183 134.7 183.5 134.8 183.7 134.8V185.7C183.5 185.8 183 185.9 182.3 185.9C181.6 185.9 181.1 185.8 180.9 185.7C180.9 170.9 171.3 160.9 157 160.9H148.6V227C148.6 228.1 149.6 228.1 150.6 228.1H173.3C187.7 228.1 198.8 224.2 206.2 216.6C212.4 210.2 216 201.1 217 189.6C217.2 189.5 217.7 189.5 218.5 189.5C219.2 189.5 219.7 189.6 220 189.6L217.4 231.1C217.4 231.3 217.4 231.3 217.1 231.3H109.5C109.4 230.6 109.4 228.7 109.5 228H125.9C126.3 228 127.5 228 127.5 226.9V95.3C127.5 94.2 126.7 94.2 125.9 94.2H109.5C109.4 93.5 109.4 91.6 109.5 90.9H214.6ZM162.6 66H155.8C155.4 66 155.1 65.8 155 65.7L132.1 0.300003C132 3.03984e-06 130.5 3.03984e-06 130.4 0.300003L109.7 62.1C108.6 65.7 108.4 66 107.6 66H100.7C100.6 66 100.6 67.9 100.7 67.9H119C119.3 67.9 119.3 66 119 66H110.7C110.2 66 110.3 65.4 111.4 62.1L117.4 44.5L117.6 44H137L137.1 44.5L144.1 65.7C144.2 65.8 144 66 143.7 66H136C135.8 66 135.8 67.9 136 67.9H162.6C162.8 67.9 162.8 66 162.6 66ZM118.1 42.2L127.2 14.6L136.3 42.2H118.1ZM412.3 66H405.5C405.1 66 404.8 65.8 404.7 65.7L381.8 0.300003C381.7 3.03984e-06 380.2 3.03984e-06 380.1 0.300003L359.3 62.1C358.2 65.7 358 66 357.2 66H350.3C350.2 66 350.2 67.9 350.3 67.9H368.6C368.9 67.9 368.9 66 368.6 66H360.3C359.8 66 359.9 65.4 361 62.1L367 44.5L367.2 44H386.6L386.7 44.5L393.7 65.7C393.8 65.8 393.6 66 393.3 66H385.5C385.3 66 385.3 67.9 385.5 67.9H412.1C412.5 67.9 412.5 66 412.3 66ZM367.9 42.2L377 14.6L386.1 42.2H367.9ZM598.9 90.9C598.9 90.9 598.9 91.1 598.9 91.2V128.7C598.7 128.8 598.2 128.8 597.4 128.8C596.7 128.8 596.1 128.7 595.9 128.7C595.9 122.1 594.6 112.6 588.9 105.2C583.3 98 574.9 94.3 563.7 94.2V90.9H598.9ZM541.1 90.9V94.2H531.2C530 94.2 529.2 94.2 529.2 95.3V157.7H537.6C552.5 157.7 561.5 149.1 561.5 134.8C561.7 134.7 562.2 134.7 562.9 134.7C563.6 134.7 564.1 134.8 564.3 134.8V185.7C564.1 185.8 563.6 185.9 562.9 185.9C562.2 185.9 561.7 185.8 561.5 185.7C561.5 170.9 551.8 160.9 537.6 160.9H529.2V227C529.2 228.1 530.2 228.1 531.2 228.1H554.2C580.8 228.1 595.4 215.2 597.5 189.7C597.7 189.6 598.2 189.6 599 189.6C599.7 189.6 600.2 189.7 600.4 189.7L597.8 231.2C597.8 231.4 597.8 231.4 597.5 231.4H489.9C489.8 230.7 489.8 228.8 489.9 228.1H506.3C506.7 228.1 507.9 228.1 507.9 227V95.3C507.9 94.2 507.1 94.2 506.3 94.2H489.9C489.8 93.5 489.8 91.6 489.9 90.9H541.1ZM346.7 63.8C345.4 65.2 343.4 66.7 341.1 66.7C337.8 66.7 336.4 63 335.8 51.5C335.1 39.6 329.2 32.5 315.9 32.5C324.9 32.5 338.2 28.3 338.2 17.1C338.2 6.40001 329.2 1.60001 315.9 1.60001H286.7C286.5 1.60001 286.5 3.5 286.7 3.5H293.5C293.9 3.5 294.1 3.49999 294.1 3.89999V65.7C294.1 66 293.9 66.1 293.5 66.1H286.7C286.5 66.1 286.5 68 286.7 68H313V66H304.8C304.3 66 304.2 65.9 304.2 65.6V33.4H311.8C319.7 33.4 324.4 37.4 325.3 51.3C326.2 65.2 331.4 69.4 338.7 69.4C342.4 69.4 344.9 68 346.7 66.1C346.7 65.9 346.7 64 346.7 63.8ZM304.3 31.6V3.89999C304.3 3.49999 304.5 3.5 304.9 3.5H313.9C322.6 3.5 327.9 5.8 327.9 17.5C327.9 29.4 321.9 31.6 313.4 31.6H304.3Z" fill="black"/>
</svg>
