<svg width="601" height="132" viewBox="0 0 601 132" fill="none" xmlns="http://www.w3.org/2000/svg">
<path d="M194.1 80.4999C217.9 55.0999 243.6 28.9999 256 28.9999C258.3 28.9999 260 30.6999 260 32.2999C260 47.3999 208.5 76.0999 194.4 80.7999L194.1 80.4999ZM152.2 124C152.2 128 154.5 131.4 159.2 131.4C163.9 131.4 166.9 131.1 190.3 112.7L191.3 111.7L190.3 110.4L189 111.4C174.9 122.8 164.6 129.8 160.6 129.8C157.3 129.8 155.9 128.1 155.9 126.5C155.9 122.5 161.3 115.8 191.4 83.9999C226.9 70.8999 261.3 45.8999 261.3 33.0999C261.3 30.0999 259.6 27.7 255.9 27.7C235.5 27.7 200 65.7999 184.6 80.8999C170.5 94.5999 160.8 103 152.1 110.3L150.8 111.3L151.8 112.3L152.8 111.3C158.5 106.9 162.2 103.6 165.5 100.6L165.8 100.9C158.6 109.6 152.2 117.6 152.2 124ZM357 110.2L355.7 111.2C345.3 119.6 332.6 129.6 327.9 129.6C326.6 129.6 324.9 128.6 324.9 127.3C324.9 120.9 346.3 110.6 346.3 99.8999C346.3 96.1999 344.6 93.2 340.3 93.2C332.3 93.2 322.6 100.9 309.2 111.3L308.9 111C310.9 108.3 315.3 102.6 315.3 99.2999C315.3 95.9999 313.3 93.2999 308.9 93.2999C301.2 93.2999 283.8 107.4 276.8 112.4L276.5 112.1C278.8 109.4 282.9 103.4 282.9 99.3999C282.9 95.3999 280.9 93.3999 277.9 93.3999C273.5 93.3999 263.2 101.8 252.5 110.5L251.2 111.5L252.2 112.5L253.2 111.5C269.9 98.3999 275 94.3999 277.3 94.3999C278.3 94.3999 279 95.4 279 96.7C279 98.4 277.3 103.1 270.3 109.8L248.2 129.9H258.9C281.3 110.5 302.7 94.3999 309.1 94.3999C311.1 94.3999 312.1 95.3999 312.1 97.3999C312.1 100.4 307.4 105.4 300.7 111.8L281.3 129.9H292C314.8 109.2 334.8 94.3999 341.2 94.3999C342.9 94.3999 343.9 95.6999 343.9 97.3999C343.9 103.8 322.5 112.1 322.5 124.8C322.5 128.5 324.8 130.8 329.5 130.8C335.5 130.8 347.9 120.1 357.9 112.1L358.9 111.1L357 110.2ZM413.6 112.5L414.9 111.5C419.3 108.2 424.9 102.8 430.6 98.3999C431.6 98.6999 432.9 98.7 434.3 98.7C436.3 98.7 438 98.3999 439.3 97.9999L439.6 98.2999L428.6 109C420.2 117 417.9 121 417.9 125.4C417.9 129.1 420.2 130.8 424.9 130.8C430.9 130.8 438.6 126.1 456.7 112.1L457.7 111.1L456.7 109.8L455.4 110.8C442.7 121.2 430.3 129.2 425.6 129.2C422.9 129.2 421.9 128.5 421.9 127.2C421.9 125.5 426.3 121.2 442 106.1L447.7 100.7L442 95.2999C440.3 96.2999 437.6 97.2999 434.3 97.2999C432.3 97.2999 429.9 96.5999 428.6 95.5999C431.6 95.2999 434.3 94.3 434.3 91.2C434.3 88.9 432.6 87.2 430.3 87.2C428 87.2 425.9 88.8999 425.9 91.8999C425.9 93.8999 426.6 95.1999 428.2 96.8999C423.8 101.3 417.8 106.6 413.8 110L412.5 111L413.6 112.5ZM485.7 130H496.4C499.7 126.7 502.1 124.3 504.8 122.3C513.5 115.3 534.9 94.4999 545.6 94.4999C547.3 94.4999 548.6 95.4999 548.6 96.7999C548.6 102.8 526.5 111.5 526.5 125.9C526.5 128.9 528.5 131.3 531.9 131.3C536.9 131.3 548 122.9 561 112.6L562 111.6L561.3 110.3L560 111.3C551.3 118.3 536.6 129.7 531.9 129.7C530.6 129.7 529.2 128.7 529.2 127C529.2 120.6 552.3 109.9 552.3 99.2C552.3 95.9 549.3 93.2 544.9 93.2C536.5 93.2 523.1 104.2 515.8 110.3C519.5 105.6 522.2 101.9 522.2 98.2999C522.2 95.5999 520.2 93.2999 516.5 93.2999C513.2 93.2999 505.8 97.2999 489.7 110.4L488.7 111.4L489.7 112.4L491 111.7C506.7 99.3 513.4 94.5999 516.4 94.5999C518.1 94.5999 518.1 95.5999 518.1 96.5999C518.1 98.8999 510.7 105.6 504.7 111.3L485.7 130Z" fill="#1D1D1B"/>
<path d="M196.1 39.4C196.1 32.7 193.4 26.3 189.1 21C196.1 16.3 203.2 11.6 210.9 8.60004L210.2 6.90002C202.5 9.90002 194.5 14.6 187.4 19.3C172.7 5.20002 149.6 0.900024 129.2 0.900024C73.0001 1.20002 23.5001 27.3 23.5001 62.1C23.5001 78.8 38.2001 86.2 58.3001 86.2C91.4001 86.2 126.2 60.4 126.2 42.7C126.2 32.3 116.5 27 105.5 27C79.1001 27 55.3001 48.8 41.6001 67.8L42.9001 68.8C53.9001 52.7 78.7001 29.6 104.8 29.6C114.2 29.6 123.5 34 123.5 42.7C123.5 61.8 78.7001 83.9 55.9001 83.9C39.8001 83.9 26.1001 76.9 26.1001 62.5C26.1001 49.4 34.5001 37.1 48.5001 26.4C64.6001 14 93.3001 3.60004 128.8 3.60004C148.9 3.60004 170.3 7.60004 184.7 20.7C153.6 39.8 132.8 61.2 112.8 83.3C87.0001 112 64.2001 128.4 34.1001 128.4C20.7001 128.4 4.3001 124.4 4.3001 116.4H4.6001C4.9001 118.4 6.6001 119.1 8.6001 119.1C11.9001 119.1 14.3001 116.4 14.3001 113.4C14.3001 110.7 11.3001 108 8.3001 108C3.9001 108 0.600098 111.7 0.600098 115.7C0.600098 125.1 16.7001 131.1 34.4001 131.1C64.9001 131.1 97.0001 113.7 118.7 91.3C138.4 70.6 150.2 47.5 186.6 23C188.9 26 191 28.7 191 33.4C191 47.8 170.9 67.2 157.2 72.2C153.9 68.9 149.5 66.8 144.8 66.8C141.5 66.8 138.8 68.5 138.8 70.8C138.8 74.5 143.5 75.8 147.8 75.8C150.1 75.8 153.5 75.1 156.8 74.5C158.1 75.8 160.1 79.5 160.1 82.9C160.1 98 128 128.4 109.6 128.4C104.6 128.4 102.6 126.4 102.6 123.4C102.6 113.7 123.3 98.3 143.1 95.6L142.8 93.9C126.4 95.9 99.6001 110.6 99.6001 123.3C99.6001 128.3 104 130.7 110.3 130.7C133.7 130.7 163.5 112.6 163.5 88.9C163.5 83.5 162.5 77.9 158.8 73.5C175.7 69.2 196.1 58.8 196.1 39.4ZM145.5 69.2C147.5 69.2 150.2 69.5 155.2 72.5C152.9 73.2 150.5 73.2 148.2 73.2C144.9 73.2 141.8 71.5 141.8 70.5C141.5 69.8 143.5 69.2 145.5 69.2ZM241 94.2L232 102.6C208.9 124.4 200.2 129.7 194.9 129.7C193.2 129.7 191.2 128.7 191.2 127C191.2 125 192.2 123 196.9 119L222.3 94.2H212.3C204.9 99.6 197.2 104.9 190.5 110.3L189.2 111.3L190.2 112.3L191.2 111.3C195.6 108 200.2 104.3 204.9 101.3L205.2 101.6C191.5 114 187.5 119 187.5 124.4C187.5 128.4 190.5 131.1 194.9 131.1C199.3 131.1 205.3 128.1 209.3 124.7L224 112.7H224.3C219.9 118.1 217.3 122.7 217.3 125.8C217.3 129.1 219.6 131.2 223.3 131.2C228 131.2 234 127.2 252.4 112.5L253.4 111.5L252.4 110.5L251.1 111.5C238.7 121.5 227.7 129.9 223.7 129.9C221.7 129.9 221 129.2 221 127.6C221 126 223 123.9 231 115.6L251.4 94.5H241M404.4 94.2L398.7 100.9H398.4C398.4 95.9 397.4 93.2 391 93.2C377.6 93.2 350.8 107.6 350.8 122.6C350.8 128 352.8 131 358.5 131C365.9 131 373.6 126 383.6 117.3H383.9C382.2 119.6 380.9 123 380.9 126C380.9 129 381.9 131 386.3 131C389.6 131 391 130 413.7 112.3L414.7 111.3L414 110.3L412.7 111.3C401 120.7 389.9 129.4 386.9 129.4C385.9 129.4 384.9 128.7 384.9 127.7C384.9 122 411 97.6 414.3 94.2C414.5 94.2 404.4 94.2 404.4 94.2ZM392 94.5C395 94.5 397 95.8 397 98.5C397 102.5 393.3 106.9 384.6 114.6C374.6 123.3 364.5 129.7 359.2 129.7C355.9 129.7 354.5 128.4 354.5 126.4C354.6 119.3 380.7 94.5 392 94.5ZM476 94.1C469.3 99.8 462.6 105.5 456.6 110.2L455.3 111.2L456.3 112.2L457.3 111.2C462 107.5 467.3 103.2 472.4 98.5L472.7 98.8C458.6 112.9 453 119.2 453 125.6C453 128.9 455.7 130.6 459.4 130.6C465.1 130.6 472.8 125.2 489.9 111.9L490.9 110.9L490.2 110.2L488.9 111.2C471.5 125.3 463.5 129.6 459.8 129.6C458.8 129.6 457.5 128.9 457.5 127.9C457.5 125.2 459.2 123.2 470.9 110.8L486.3 94.1C486 94.1 476 94.1 476 94.1ZM501.4 77.7L496 71.3L489.6 77.7L494.6 83.7L501.4 77.7ZM599.6 110.2L598.3 111.2C584.6 122.2 571.2 129.6 563.8 129.6C561.1 129.6 559.1 127.6 559.1 125.6C559.1 121.2 563.5 115.9 566.5 113.9C589.3 110.2 598 102.9 598 97.2C598 95.2 597 93.2 593.6 93.2C580.9 93.2 555.5 108.9 555.5 122.6C555.5 127.6 558.2 131.3 563.9 131.3C573.3 131.3 584.3 124.9 599.7 112.6L600.7 111.6L599.6 110.2ZM593.6 94.5C594.9 94.5 596.6 95.5 596.6 97.2C596.6 104.2 580.2 109.9 569.2 111.6L568.9 111.3C582.9 99.5 588.9 94.5 593.6 94.5Z" fill="#1D1D1B"/>
</svg>
