<svg width="2280" height="422" viewBox="0 0 2280 422" fill="none" xmlns="http://www.w3.org/2000/svg">
<path fill-rule="evenodd" clip-rule="evenodd" d="M0.29458 413.147H44.7549V172.337C44.7549 132.442 68.8527 117.696 105.012 116.022V68.6568C50.7859 58.8906 0.0870639 111.872 0.29458 172.337V413.147ZM738.91 413.147H783.37V172.337C783.37 132.442 807.468 117.696 843.628 116.022V68.6568C789.401 58.8906 738.702 111.872 738.91 172.337V413.147ZM205.775 66.8022C220.729 67.0097 235.903 68.4623 243.374 71.16C288.042 86.5422 301.128 151.365 303.839 193.543C306.158 227.055 305.464 260.709 301.764 294.097C296.576 338.765 286.81 378.868 243.387 407.323C237.563 411.279 223.024 413.769 208.07 413.977H203.505C188.343 413.769 173.999 411.279 167.981 407.323C124.558 378.868 114.792 338.765 109.798 294.097C105.925 260.722 105.161 227.059 107.516 193.543C110.213 151.365 123.507 86.5422 167.981 71.16C175.438 68.4623 190.613 66.9967 205.775 66.8022ZM205.36 108.552C246.707 108.552 257.511 156.125 259.586 185.631C262.076 224.489 261.661 264.163 259.586 304.473C258.134 331.489 247.33 374.704 205.775 374.704C164.012 374.704 152.793 333.979 151.963 304.473C150.718 264.786 150.51 225.111 151.963 185.631C153.001 155.93 164.012 108.552 205.36 108.552ZM1053.26 66.8022C1068.42 67.0097 1083.59 68.4623 1091.08 71.16C1135.54 86.5422 1148.64 151.365 1151.54 193.543C1153.62 226.784 1153.19 261.063 1149.26 294.097C1144.05 338.765 1134.29 378.868 1091.08 407.323C1085.05 411.279 1070.72 413.769 1055.55 413.977H1050.99C1035.83 413.769 1021.48 411.279 1015.46 407.323C972.249 378.868 962.483 338.765 957.295 294.097C953.622 260.709 952.859 227.064 955.012 193.543C957.917 151.365 971.004 86.5422 1015.48 71.16C1022.92 68.4623 1038.1 66.9967 1053.26 66.8022ZM1052.84 108.552C1094.19 108.552 1105.2 156.125 1107.07 185.631C1109.56 224.489 1109.14 264.163 1107.07 304.473C1105.62 331.489 1095.02 374.704 1053.26 374.704C1011.5 374.704 1000.28 333.979 999.446 304.473C998.409 264.786 997.994 225.111 999.446 185.631C1000.48 155.93 1011.5 108.552 1052.84 108.552ZM450.942 67.4247C507.036 82.8068 509.941 151.365 512.445 193.543C514.52 226.784 514.105 264.799 510.369 297.846C505.584 342.5 494.157 378.868 453.238 407.323C447.414 411.279 433.913 413.769 419.789 413.977H415.418C401.086 413.769 380.309 410.657 372.618 405.469C331.27 377.83 329.195 338.765 324.422 294.097C322.554 277.678 322.139 260.869 322.554 244.034V1.55124H371.386V91.9246C372.008 91.0945 372.423 90.472 373.046 89.642C390.685 64.7141 425.392 60.3562 450.942 67.4247ZM417.078 106.892C468.814 106.892 466.519 156.125 468.399 185.631C470.695 224.489 467.984 264.163 466.117 304.473C464.859 331.489 456.96 374.704 417.48 374.704C378.221 374.704 367.624 333.979 366.794 304.473C365.549 264.786 365.342 225.111 366.794 185.631C367.832 155.93 378.221 106.892 417.078 106.892ZM579.55 305.303C628.991 261.673 678.445 217.835 727.898 173.997C713.152 64.9216 668.691 62.6389 632.947 62.0163C548.591 60.7712 530.94 151.767 531.977 240.065C533.222 328.571 540.9 351.437 562.508 382.59C609.679 450.746 714.176 413.964 722.075 318.805H679.69C671.791 388.426 584.531 395.054 579.55 305.303ZM577.268 250.869L682.608 159.873C681.985 115.62 659.755 102.949 624.854 104.401C582.455 106.062 569.576 154.893 577.268 250.869ZM869.593 7.99723H919.034V64.299H956.633V114.79H919.034V413.147H869.593V7.99723ZM1339.77 66.8022C1354.92 67.0097 1370.1 68.4623 1377.57 71.16C1417.89 85.0766 1426.81 139.524 1431.17 181.066H1393.17C1387.75 137.02 1378.6 108.565 1339.34 108.565C1298 108.565 1287.21 155.93 1285.95 185.644C1284.51 225.111 1284.91 264.799 1285.95 304.486C1286.78 333.992 1298.2 374.717 1339.77 374.717C1381.12 374.717 1392.13 332.332 1393.57 305.316H1430.35C1424.72 345.419 1417.25 381.163 1377.57 407.323C1371.56 411.279 1357.23 413.769 1342.06 413.977H1337.46C1322.52 413.769 1301.95 409.619 1295.92 405.663C1252.5 377.208 1248.96 338.765 1243.77 294.084C1240.08 260.695 1239.38 227.043 1241.7 193.53C1244.41 151.352 1252.3 83.8315 1302.16 71.1471C1309.63 69.0849 1324.81 66.9967 1339.77 66.8022ZM1604.46 214.93V308.221C1604.46 308.221 1604.46 346.249 1580.78 366.183C1556.89 386.131 1534.45 386.974 1513.04 364.744C1491.43 342.306 1493.91 303.436 1514.71 281.011C1535.28 258.781 1562.28 247.562 1576.61 237.381C1590.96 226.979 1604.46 214.93 1604.46 214.93ZM1470.66 199.976H1511.38V156.345C1511.38 141.806 1520.52 122.896 1542.56 115.413C1564.56 108.137 1596.56 113.545 1600.52 128.927C1606.55 151.573 1591.8 174.425 1567.08 191.883C1542.36 209.34 1491.44 232.193 1473.37 256.913C1455.09 281.633 1445.1 305.122 1449.89 347.299C1454.45 389.477 1487.91 416.272 1518.24 421.058C1548.35 425.637 1581.81 410.877 1591.8 404.224C1601.96 397.583 1603.84 394.25 1603.84 394.25V410.864H1649.56V156.345C1649.56 156.345 1648.73 67.8397 1561.66 67.8397C1474.62 67.8397 1470.66 152.403 1470.66 165.697V199.976ZM1990.49 214.93V308.221C1990.49 308.221 1990.49 346.249 1966.6 366.183C1942.71 386.131 1920.47 386.974 1899.07 364.744C1877.46 342.306 1879.96 303.436 1900.53 281.011C1921.31 258.781 1948.31 247.562 1962.65 237.381C1976.99 226.979 1990.49 214.93 1990.49 214.93ZM1856.49 199.976H1897.42V156.345C1897.42 141.806 1906.34 122.896 1928.38 115.413C1950.39 108.137 1982.59 113.545 1986.54 128.927C1992.36 151.573 1977.82 174.425 1953.1 191.883C1928.15 209.327 1877.25 232.193 1859.17 256.913C1841.11 281.633 1831.13 305.122 1835.71 347.299C1840.47 389.477 1873.93 416.272 1904.06 421.058C1934.18 425.637 1967.85 410.877 1977.83 404.224C1987.79 397.583 1989.87 394.25 1989.87 394.25V410.864H2035.39V156.345C2035.39 156.345 2034.76 67.8397 1947.69 67.8397C1860.65 67.8397 1856.5 152.403 1856.5 165.697L1856.49 199.976ZM1658.7 73.4427H1703.99L1754.27 286.614L1807.45 71.7825H1853.58L1774.01 410.034H1734.12L1658.7 73.4427ZM2070.89 0.0986328H2118.7V412.304H2070.89V0.0986328ZM2149.02 0.0986328H2196.59V412.304H2149.02V0.0986328ZM2231.92 0.0986328H2279.7V53.4952H2231.92V0.0986328ZM2279.7 75.7253V412.304H2231.92V75.7253H2279.7Z" fill="black"/>
</svg>
